<svg width="207" height="121" viewBox="0 0 207 121" fill="none" xmlns="http://www.w3.org/2000/svg">
<rect width="207" height="121" fill="#181C29"/>
<rect x="29.9739" y="18.8123" width="23.2945" height="23.0583" rx="1" fill="#363D4F"/>
<rect x="61.6626" y="18.8123" width="23.2945" height="23.0583" rx="1" fill="#933F34"/>
<rect x="93.3513" y="18.8123" width="23.2945" height="23.0583" rx="1" fill="#DA8607"/>
<rect x="125.041" y="18.8123" width="23.2945" height="23.0583" rx="1" fill="#A3A53F"/>
<rect x="156.729" y="18.8123" width="23.2945" height="23.0583" rx="1" fill="#338517"/>
<path d="M33.6584 73.3153V91H31.4922V54.6364H33.6584V68.0419H33.8714C34.5107 66.6214 35.5286 65.491 36.9254 64.6506C38.334 63.7983 40.0208 63.3722 41.9858 63.3722C43.8205 63.3722 45.4363 63.7628 46.8331 64.544C48.2299 65.3134 49.3189 66.4202 50.1001 67.8643C50.8932 69.2966 51.2898 71.013 51.2898 73.0135V91H49.1413V73.1023C49.1413 70.7704 48.4489 68.9001 47.0639 67.4915C45.679 66.0829 43.8501 65.3786 41.5774 65.3786C40.0504 65.3786 38.6892 65.71 37.4936 66.3729C36.2981 67.0357 35.357 67.965 34.6705 69.1605C33.9957 70.3442 33.6584 71.7292 33.6584 73.3153ZM67.4785 91.5859C65.9042 91.5859 64.46 91.2723 63.1461 90.6449C61.844 90.0175 60.7965 89.1001 60.0034 87.8928C59.2221 86.6854 58.8315 85.2176 58.8315 83.4893C58.8315 82.353 59.0327 81.3527 59.4352 80.4886C59.8377 79.6245 60.4591 78.8788 61.2995 78.2514C62.14 77.6241 63.2172 77.1091 64.5311 76.7067C65.845 76.2924 67.4134 75.9728 69.2363 75.7479C70.6213 75.5821 71.8583 75.4223 72.9473 75.2685C74.0363 75.1027 74.8886 74.8482 75.5041 74.505C76.1315 74.1617 76.4451 73.6409 76.4451 72.9425V71.8061C76.4451 69.8175 75.8178 68.2372 74.563 67.0653C73.3083 65.8935 71.5801 65.3075 69.3784 65.3075C67.4252 65.3075 65.7799 65.7396 64.4423 66.6037C63.1165 67.456 62.1873 68.5568 61.6547 69.9062L59.6127 69.1428C60.1336 67.8407 60.8852 66.7576 61.8677 65.8935C62.862 65.0294 63.9984 64.3842 65.2768 63.9581C66.5671 63.532 67.9165 63.3189 69.3251 63.3189C70.5443 63.3189 71.7044 63.4905 72.8052 63.8338C73.9179 64.1771 74.9063 64.6979 75.7704 65.3963C76.6464 66.0947 77.3388 66.9884 77.8478 68.0774C78.3568 69.1546 78.6113 70.4448 78.6113 71.9482V91H76.4451V86.0817H76.2853C75.8118 87.0997 75.1608 88.0289 74.3322 88.8693C73.5154 89.6979 72.527 90.3608 71.367 90.858C70.2188 91.3433 68.9226 91.5859 67.4785 91.5859ZM67.6916 89.5795C69.3961 89.5795 70.9054 89.1652 72.2193 88.3366C73.545 87.4962 74.5808 86.348 75.3265 84.892C76.0723 83.4361 76.4451 81.7848 76.4451 79.9382V75.9254C76.1729 76.1622 75.7763 76.3752 75.2555 76.5646C74.7465 76.7422 74.1665 76.902 73.5154 77.044C72.8762 77.1742 72.2015 77.2926 71.4913 77.3991C70.7929 77.4938 70.1123 77.5826 69.4494 77.6655C67.4608 77.9022 65.8391 78.2692 64.5843 78.7663C63.3414 79.2517 62.43 79.8909 61.85 80.6839C61.2818 81.477 60.9977 82.4358 60.9977 83.5604C60.9977 85.4188 61.6369 86.8866 62.9153 87.9638C64.1937 89.041 65.7858 89.5795 67.6916 89.5795ZM88.4569 91V54.6364H90.6053V69.8175H90.8184C91.2445 68.6456 91.8482 67.5684 92.6294 66.5859C93.4107 65.6035 94.3813 64.8163 95.5414 64.2244C96.7014 63.6207 98.0568 63.3189 99.6074 63.3189C101.797 63.3189 103.709 63.9285 105.343 65.1477C106.976 66.3551 108.243 68.0241 109.142 70.1548C110.042 72.2737 110.492 74.7003 110.492 77.4347C110.492 80.1927 110.042 82.6371 109.142 84.7678C108.243 86.8866 106.982 88.5497 105.36 89.7571C103.739 90.9645 101.827 91.5682 99.6252 91.5682C98.0745 91.5682 96.7192 91.2723 95.5591 90.6804C94.3991 90.0767 93.4284 89.2836 92.6472 88.3011C91.8659 87.3068 91.2563 86.2237 90.8184 85.0518H90.5698V91H88.4569ZM90.5875 77.4169C90.5875 79.737 90.9367 81.8144 91.6351 83.6491C92.3453 85.4721 93.3633 86.9162 94.6891 87.9815C96.0149 89.035 97.601 89.5618 99.4476 89.5618C101.318 89.5618 102.916 89.0291 104.242 87.9638C105.567 86.8866 106.579 85.4306 107.278 83.5959C107.988 81.7611 108.343 79.7015 108.343 77.4169C108.343 75.1323 107.988 73.0786 107.278 71.2557C106.579 69.4328 105.567 67.9946 104.242 66.9411C102.916 65.8757 101.318 65.343 99.4476 65.343C97.601 65.343 96.0149 65.8698 94.6891 66.9233C93.3633 67.965 92.3453 69.3973 91.6351 71.2202C90.9367 73.0312 90.5875 75.0968 90.5875 77.4169ZM118.073 91V63.7273H120.222V91H118.073ZM119.156 58.8977C118.683 58.8977 118.269 58.732 117.914 58.4006C117.57 58.0691 117.399 57.6667 117.399 57.1932C117.399 56.7197 117.57 56.3172 117.914 55.9858C118.257 55.6544 118.671 55.4886 119.156 55.4886C119.63 55.4886 120.038 55.6544 120.382 55.9858C120.737 56.3172 120.914 56.7197 120.914 57.1932C120.914 57.6667 120.743 58.0691 120.399 58.4006C120.056 58.732 119.642 58.8977 119.156 58.8977ZM138.936 63.7273V65.6626H127.022V63.7273H138.936ZM131.053 57.1932H133.201V84.5547C133.201 85.6674 133.414 86.5788 133.84 87.2891C134.278 87.9875 134.847 88.5083 135.545 88.8516C136.255 89.183 137.013 89.3487 137.818 89.3487C138.208 89.3487 138.546 89.3191 138.83 89.2599C139.126 89.2008 139.404 89.1238 139.664 89.0291L140.197 91C139.865 91.1184 139.499 91.219 139.096 91.3018C138.694 91.3965 138.22 91.4439 137.676 91.4439C136.539 91.4439 135.462 91.1894 134.444 90.6804C133.438 90.1714 132.621 89.4316 131.994 88.4609C131.366 87.4903 131.053 86.3184 131.053 84.9453V57.1932ZM163.812 69.6044L161.806 70.1371C161.486 69.1428 161.03 68.2846 160.438 67.5625C159.847 66.8404 159.101 66.2841 158.201 65.8935C157.313 65.491 156.248 65.2898 155.005 65.2898C153.005 65.2898 151.365 65.7869 150.087 66.7812C148.82 67.7756 148.187 69.0717 148.187 70.6697C148.187 71.9718 148.619 73.049 149.483 73.9013C150.347 74.7417 151.667 75.3809 153.443 75.8189L157.633 76.8665C159.787 77.3991 161.409 78.2633 162.498 79.4588C163.587 80.6425 164.132 82.1162 164.132 83.88C164.132 85.3833 163.723 86.715 162.906 87.875C162.09 89.035 160.959 89.9406 159.515 90.5916C158.083 91.2427 156.414 91.5682 154.508 91.5682C151.963 91.5682 149.874 90.9763 148.24 89.7926C146.607 88.5971 145.559 86.8866 145.097 84.6612L147.175 84.1286C147.566 85.9041 148.376 87.2595 149.607 88.1946C150.85 89.1179 152.478 89.5795 154.49 89.5795C156.716 89.5795 158.509 89.0528 159.87 87.9993C161.243 86.9458 161.93 85.5964 161.93 83.951C161.93 82.6963 161.527 81.6368 160.722 80.7727C159.918 79.9086 158.698 79.2753 157.065 78.8729L152.715 77.8075C150.489 77.263 148.82 76.393 147.708 75.1974C146.595 73.9901 146.039 72.5045 146.039 70.7408C146.039 69.273 146.423 67.9827 147.193 66.87C147.962 65.7573 149.021 64.8873 150.371 64.2599C151.72 63.6326 153.265 63.3189 155.005 63.3189C157.313 63.3189 159.195 63.8634 160.651 64.9524C162.107 66.0414 163.161 67.5921 163.812 69.6044Z" fill="white"/>
</svg>
