<svg width="116" height="64" viewBox="0 0 154 78" fill="none" xmlns="http://www.w3.org/2000/svg">
<rect x="2.97388" y="0.812256" width="23.2945" height="23.0583" rx="1" fill="#363D4F"/>
<rect x="34.6626" y="0.812256" width="23.2945" height="23.0583" rx="1" fill="#933F34"/>
<rect x="66.3513" y="0.812256" width="23.2945" height="23.0583" rx="1" fill="#DA8607"/>
<rect x="98.0405" y="0.812256" width="23.2945" height="23.0583" rx="1" fill="#A3A53F"/>
<rect x="129.729" y="0.812256" width="23.2945" height="23.0583" rx="1" fill="#338517"/>
<path d="M6.65838 55.3153V73H4.49219V36.6364H6.65838V50.0419H6.87145C7.51065 48.6214 8.52865 47.491 9.92543 46.6506C11.334 45.7983 13.0208 45.3722 14.9858 45.3722C16.8205 45.3722 18.4363 45.7628 19.8331 46.544C21.2299 47.3134 22.3189 48.4202 23.1001 49.8643C23.8932 51.2966 24.2898 53.013 24.2898 55.0135V73H22.1413V55.1023C22.1413 52.7704 21.4489 50.9001 20.0639 49.4915C18.679 48.0829 16.8501 47.3786 14.5774 47.3786C13.0504 47.3786 11.6892 47.71 10.4936 48.3729C9.29806 49.0357 8.35701 49.965 7.67045 51.1605C6.99574 52.3442 6.65838 53.7292 6.65838 55.3153ZM40.4785 73.5859C38.9042 73.5859 37.46 73.2723 36.1461 72.6449C34.844 72.0175 33.7965 71.1001 33.0034 69.8928C32.2221 68.6854 31.8315 67.2176 31.8315 65.4893C31.8315 64.353 32.0327 63.3527 32.4352 62.4886C32.8377 61.6245 33.4591 60.8788 34.2995 60.2514C35.14 59.6241 36.2172 59.1091 37.5311 58.7067C38.845 58.2924 40.4134 57.9728 42.2363 57.7479C43.6213 57.5821 44.8583 57.4223 45.9473 57.2685C47.0363 57.1027 47.8886 56.8482 48.5041 56.505C49.1315 56.1617 49.4451 55.6409 49.4451 54.9425V53.8061C49.4451 51.8175 48.8178 50.2372 47.563 49.0653C46.3083 47.8935 44.5801 47.3075 42.3784 47.3075C40.4252 47.3075 38.7799 47.7396 37.4423 48.6037C36.1165 49.456 35.1873 50.5568 34.6547 51.9062L32.6127 51.1428C33.1336 49.8407 33.8852 48.7576 34.8677 47.8935C35.862 47.0294 36.9984 46.3842 38.2768 45.9581C39.5671 45.532 40.9165 45.3189 42.3251 45.3189C43.5443 45.3189 44.7044 45.4905 45.8052 45.8338C46.9179 46.1771 47.9063 46.6979 48.7704 47.3963C49.6464 48.0947 50.3388 48.9884 50.8478 50.0774C51.3568 51.1546 51.6113 52.4448 51.6113 53.9482V73H49.4451V68.0817H49.2853C48.8118 69.0997 48.1608 70.0289 47.3322 70.8693C46.5154 71.6979 45.527 72.3608 44.367 72.858C43.2188 73.3433 41.9226 73.5859 40.4785 73.5859ZM40.6916 71.5795C42.3961 71.5795 43.9054 71.1652 45.2193 70.3366C46.545 69.4962 47.5808 68.348 48.3265 66.892C49.0723 65.4361 49.4451 63.7848 49.4451 61.9382V57.9254C49.1729 58.1622 48.7763 58.3752 48.2555 58.5646C47.7465 58.7422 47.1665 58.902 46.5154 59.044C45.8762 59.1742 45.2015 59.2926 44.4913 59.3991C43.7929 59.4938 43.1123 59.5826 42.4494 59.6655C40.4608 59.9022 38.8391 60.2692 37.5843 60.7663C36.3414 61.2517 35.43 61.8909 34.85 62.6839C34.2818 63.477 33.9977 64.4358 33.9977 65.5604C33.9977 67.4188 34.6369 68.8866 35.9153 69.9638C37.1937 71.041 38.7858 71.5795 40.6916 71.5795ZM61.4569 73V36.6364H63.6053V51.8175H63.8184C64.2445 50.6456 64.8482 49.5684 65.6294 48.5859C66.4107 47.6035 67.3813 46.8163 68.5414 46.2244C69.7014 45.6207 71.0568 45.3189 72.6074 45.3189C74.7973 45.3189 76.709 45.9285 78.3425 47.1477C79.976 48.3551 81.2426 50.0241 82.1422 52.1548C83.0418 54.2737 83.4917 56.7003 83.4917 59.4347C83.4917 62.1927 83.0418 64.6371 82.1422 66.7678C81.2426 68.8866 79.9819 70.5497 78.3603 71.7571C76.7386 72.9645 74.8269 73.5682 72.6252 73.5682C71.0745 73.5682 69.7192 73.2723 68.5591 72.6804C67.3991 72.0767 66.4284 71.2836 65.6472 70.3011C64.8659 69.3068 64.2563 68.2237 63.8184 67.0518H63.5698V73H61.4569ZM63.5875 59.4169C63.5875 61.737 63.9367 63.8144 64.6351 65.6491C65.3453 67.4721 66.3633 68.9162 67.6891 69.9815C69.0149 71.035 70.601 71.5618 72.4476 71.5618C74.3179 71.5618 75.9159 71.0291 77.2417 69.9638C78.5674 68.8866 79.5795 67.4306 80.2779 65.5959C80.9881 63.7611 81.3432 61.7015 81.3432 59.4169C81.3432 57.1323 80.9881 55.0786 80.2779 53.2557C79.5795 51.4328 78.5674 49.9946 77.2417 48.9411C75.9159 47.8757 74.3179 47.343 72.4476 47.343C70.601 47.343 69.0149 47.8698 67.6891 48.9233C66.3633 49.965 65.3453 51.3973 64.6351 53.2202C63.9367 55.0312 63.5875 57.0968 63.5875 59.4169ZM91.0733 73V45.7273H93.2218V73H91.0733ZM92.1564 40.8977C91.6829 40.8977 91.2686 40.732 90.9135 40.4006C90.5703 40.0691 90.3986 39.6667 90.3986 39.1932C90.3986 38.7197 90.5703 38.3172 90.9135 37.9858C91.2568 37.6544 91.6711 37.4886 92.1564 37.4886C92.6299 37.4886 93.0383 37.6544 93.3816 37.9858C93.7367 38.3172 93.9142 38.7197 93.9142 39.1932C93.9142 39.6667 93.7426 40.0691 93.3993 40.4006C93.056 40.732 92.6417 40.8977 92.1564 40.8977ZM111.936 45.7273V47.6626H100.022V45.7273H111.936ZM104.053 39.1932H106.201V66.5547C106.201 67.6674 106.414 68.5788 106.84 69.2891C107.278 69.9875 107.847 70.5083 108.545 70.8516C109.255 71.183 110.013 71.3487 110.818 71.3487C111.208 71.3487 111.546 71.3191 111.83 71.2599C112.126 71.2008 112.404 71.1238 112.664 71.0291L113.197 73C112.865 73.1184 112.499 73.219 112.096 73.3018C111.694 73.3965 111.22 73.4439 110.676 73.4439C109.539 73.4439 108.462 73.1894 107.444 72.6804C106.438 72.1714 105.621 71.4316 104.994 70.4609C104.366 69.4903 104.053 68.3184 104.053 66.9453V39.1932ZM136.812 51.6044L134.806 52.1371C134.486 51.1428 134.03 50.2846 133.438 49.5625C132.847 48.8404 132.101 48.2841 131.201 47.8935C130.313 47.491 129.248 47.2898 128.005 47.2898C126.005 47.2898 124.365 47.7869 123.087 48.7812C121.82 49.7756 121.187 51.0717 121.187 52.6697C121.187 53.9718 121.619 55.049 122.483 55.9013C123.347 56.7417 124.667 57.3809 126.443 57.8189L130.633 58.8665C132.787 59.3991 134.409 60.2633 135.498 61.4588C136.587 62.6425 137.132 64.1162 137.132 65.88C137.132 67.3833 136.723 68.715 135.906 69.875C135.09 71.035 133.959 71.9406 132.515 72.5916C131.083 73.2427 129.414 73.5682 127.508 73.5682C124.963 73.5682 122.874 72.9763 121.24 71.7926C119.607 70.5971 118.559 68.8866 118.097 66.6612L120.175 66.1286C120.566 67.9041 121.376 69.2595 122.607 70.1946C123.85 71.1179 125.478 71.5795 127.49 71.5795C129.716 71.5795 131.509 71.0528 132.87 69.9993C134.243 68.9458 134.93 67.5964 134.93 65.951C134.93 64.6963 134.527 63.6368 133.722 62.7727C132.918 61.9086 131.698 61.2753 130.065 60.8729L125.715 59.8075C123.489 59.263 121.82 58.393 120.708 57.1974C119.595 55.9901 119.039 54.5045 119.039 52.7408C119.039 51.273 119.423 49.9827 120.193 48.87C120.962 47.7573 122.021 46.8873 123.371 46.2599C124.72 45.6326 126.265 45.3189 128.005 45.3189C130.313 45.3189 132.195 45.8634 133.651 46.9524C135.107 48.0414 136.161 49.5921 136.812 51.6044Z" fill="white"/>
</svg>
